<?xml version="1.0" standalone="no"?><!DOCTYPE svg PUBLIC "-//W3C//DTD SVG 1.1//EN" "http://www.w3.org/Graphics/SVG/1.1/DTD/svg11.dtd"><svg t="1761834148637" class="icon" viewBox="0 0 1024 1024" version="1.1" xmlns="http://www.w3.org/2000/svg" p-id="12608" xmlns:xlink="http://www.w3.org/1999/xlink" width="200" height="200"><path d="M823.296 910.67733333H202.88853333c-51.33653333 0-93.3888-42.05226667-93.3888-93.3888v-551.59466666c0-51.33653333 42.05226667-93.3888 93.3888-93.3888H823.296c51.33653333 0 93.3888 42.05226667 93.3888 93.3888v551.59466666c0 51.88266667-42.05226667 93.3888-93.3888 93.3888z m-620.40746667-682.66666666c-20.75306667 0-37.6832 16.93013333-37.6832 37.6832v551.59466666c0 20.75306667 16.93013333 37.6832 37.6832 37.6832H823.296c20.75306667 0 37.6832-16.93013333 37.6832-37.6832v-551.59466666c0-20.75306667-16.93013333-37.6832-37.6832-37.6832H202.88853333z" fill="currentColor" p-id="12609"></path><path d="M342.69866667 301.73866667c-15.29173333 0-27.8528-12.56106667-27.8528-27.8528V121.51466667c0-15.29173333 12.56106667-27.8528 27.8528-27.8528s27.8528 12.56106667 27.8528 27.8528v152.3712c0 15.29173333-12.56106667 27.8528-27.8528 27.8528z m340.7872 0c-15.29173333 0-27.8528-12.56106667-27.8528-27.8528V121.51466667c0-15.29173333 12.56106667-27.8528 27.8528-27.8528s27.8528 12.56106667 27.8528 27.8528v152.3712c0 15.29173333-12.56106667 27.8528-27.8528 27.8528z m66.08213333 235.9296H514.18453333c-15.29173333 0-27.8528-12.56106667-27.8528-27.8528s12.56106667-27.8528 27.8528-27.8528H749.568c15.29173333 0 27.8528 12.56106667 27.8528 27.8528s-12.56106667 27.8528-27.8528 27.8528z m0 167.66293333H331.22986667c-15.29173333 0-27.8528-12.56106667-27.8528-27.8528s12.56106667-27.8528 27.8528-27.8528H749.568c15.29173333 0 27.8528 12.56106667 27.8528 27.8528s-12.56106667 27.8528-27.8528 27.8528z" fill="currentColor" p-id="12610"></path></svg>