<?xml version="1.0" standalone="no"?><!DOCTYPE svg PUBLIC "-//W3C//DTD SVG 1.1//EN" "http://www.w3.org/Graphics/SVG/1.1/DTD/svg11.dtd"><svg t="1761489404925" class="icon" viewBox="0 0 1024 1024" version="1.1" xmlns="http://www.w3.org/2000/svg" p-id="8377" xmlns:xlink="http://www.w3.org/1999/xlink" width="200" height="200"><path d="M341.333333 561.792L872.405333 512 341.333333 462.208V246.272a21.333333 21.333333 0 0 1 30.08-19.456l590.506667 265.728a21.333333 21.333333 0 0 1 0 38.912l-590.506667 265.728A21.333333 21.333333 0 0 1 341.333333 777.728v-215.936z" fill="currentColor" p-id="8378"></path><path d="M170.666667 682.666667h42.666666a42.666667 42.666667 0 0 1 0 85.333333H170.666667a42.666667 42.666667 0 0 1 0-85.333333z m-128-213.333334h170.666666a42.666667 42.666667 0 0 1 0 85.333334H42.666667a42.666667 42.666667 0 0 1 0-85.333334z m128-213.333333h42.666666a42.666667 42.666667 0 1 1 0 85.333333H170.666667a42.666667 42.666667 0 1 1 0-85.333333z" fill="currentColor" opacity=".3" p-id="8379"></path></svg>