<?xml version="1.0" standalone="no"?><!DOCTYPE svg PUBLIC "-//W3C//DTD SVG 1.1//EN" "http://www.w3.org/Graphics/SVG/1.1/DTD/svg11.dtd"><svg t="1757924439181" class="icon" viewBox="0 0 1120 1024" version="1.1" xmlns="http://www.w3.org/2000/svg" p-id="6963" xmlns:xlink="http://www.w3.org/1999/xlink" width="218.75" height="200"><path d="M944.99017727 329.70653924H696.31687338V178.06222223c0-50.27560903-40.74781013-91.02235534-91.02448413-91.02235534H168.38678641c-50.27560903 0-91.02341917 40.74674631-91.02341916 91.02235534v291.27111111C77.36336725 519.60787855 118.11011356 560.35462372 168.38678641 560.35462372h17.45680953v117.40448996c0 7.29034638 4.40890823 14.00908914 11.30647666 16.78301867 6.75599815 2.84524658 14.61369059 1.35077433 19.84115257-3.83943339L347.16047473 560.35462372h69.90280932v151.64431701c0 50.27454521 40.74568135 91.02235534 91.02235533 91.02235535h257.95628261l130.34594531 130.34701027c7.21690055 7.07533027 18.80864654 6.93269504 25.88397682-0.24801394a18.49676573 18.49676573 0 0 0 5.26365354-12.65937976v-117.43961657h17.45467961c50.27560903 0 91.02448413-40.74674631 91.02448413-91.02235535V420.72889459c0-50.06272171-40.78187293-91.02235534-91.02448413-91.02235535z m-527.92689322 91.02235535v103.21763896h-77.36985259a18.73413575 18.73413575 0 0 0-12.90632989 5.26152477l-104.67592191 104.53328668v-91.59183019c0-10.02595669-8.21321614-18.20404509-18.20510892-18.20404508h-35.69704503c-30.04487111 0-54.61426517-24.56939406-54.61426518-54.61320135V178.06222223c0-30.04487111 24.56939406-54.61426517 54.61426518-54.61426518h436.90666666c30.00761571 0 54.61213639 24.56939406 54.61213526 54.61426518v151.64431701H508.08457557c-50.20429198 0.14157027-90.87972011 40.81699954-91.02129152 91.02235535z m582.54222221 291.27004614c0 30.04593493-24.56939406 54.61426517-54.61532899 54.61426518H909.3293238c-10.02808547 0-18.20511005 8.21321614-18.20511004 18.20511004v91.76852708l-104.53435051-104.53328668c-3.41259378-3.41259378-8.07058091-5.2977152-12.90632989-5.26152477h-265.59895779c-30.04593493 0-54.61426517-24.56939406-54.61426517-54.61320021v-291.2732399c0-30.04380615 24.5683291-54.61320021 54.61426517-54.61320021h436.9056017c30.04593493 0 54.61532899 24.56939406 54.61532899 54.61320021v291.09334926z" fill="currentColor" p-id="6964"></path><path d="M872.17399693 475.3420948H580.90182087c-9.98976512 0-18.20404509 8.17808953-18.20404509 18.20404508 0 9.99083008 8.21427997 18.20511005 18.20404509 18.20511005h291.27217606c9.98976512 0 18.20404509-8.21427997 18.2040451-18.20511005 0-10.02595669-7.99926272-18.20404509-18.2040451-18.20404508" fill="currentColor" p-id="6965"></path><path d="M872.17399693 620.97658539H580.90182087c-9.98976512 0-18.20404509 8.21427997-18.20404509 18.20404509 0 9.99295886 8.21427997 18.20617387 18.20404509 18.206175h291.27217606c9.98976512 0 18.20404509-8.21321614 18.2040451-18.206175 0-9.98976512-7.99926272-18.20404509-18.2040451-18.20404509" fill="currentColor" p-id="6966"></path></svg>