<?xml version="1.0" standalone="no"?><!DOCTYPE svg PUBLIC "-//W3C//DTD SVG 1.1//EN" "http://www.w3.org/Graphics/SVG/1.1/DTD/svg11.dtd"><svg t="1756827965393" class="icon" viewBox="0 0 1024 1024" version="1.1" xmlns="http://www.w3.org/2000/svg" p-id="15081" xmlns:xlink="http://www.w3.org/1999/xlink" width="200" height="200"><path d="M192 192l384 0 0 64-384 0 0-64Z" fill="currentColor" p-id="15082"></path><path d="M192 384l384 0 0 64-384 0 0-64Z" fill="currentColor" p-id="15083"></path><path d="M192 576l384 0 0 64-384 0 0-64Z" fill="currentColor" p-id="15084"></path><path d="M192 768l384 0 0 64-384 0 0-64Z" fill="currentColor" p-id="15085"></path><path d="M832 256l-128 0L704 192c0 0 0-64 64-64s64 64 64 64L832 256z" fill="currentColor" p-id="15086"></path><path d="M704 320l128 0 0 320-128 0 0-320Z" fill="currentColor" p-id="15087"></path><path d="M832 832 768 896 704 832 704 704 832 704Z" fill="currentColor" p-id="15088"></path><path d="M64 0l0 1024 896 0L960 0 64 0zM930.688 989.312 96 989.312l0-960 834.688 0L930.688 989.312z" fill="currentColor" p-id="15089"></path></svg>