<?xml version="1.0" standalone="no"?><!DOCTYPE svg PUBLIC "-//W3C//DTD SVG 1.1//EN" "http://www.w3.org/Graphics/SVG/1.1/DTD/svg11.dtd"><svg t="1757426360832" class="icon" viewBox="0 0 1024 1024" version="1.1" xmlns="http://www.w3.org/2000/svg" p-id="2382" xmlns:xlink="http://www.w3.org/1999/xlink" width="200" height="200"><path d="M218.398633 92.602704c-47.59992 33.299944-88.899851 74.299875-122.799794 121.799796C27.499954 309.70234-6.09999 426.300144 0.999998 542.599949c1.499997 25.099958 23.099961 44.199926 48.199919 42.699928s44.199926-23.099961 42.699929-48.199919C79.799866 338.000292 211.097645 156.402597 404.196321 105.202683c147.998751-39.199934 303.69749 4.899992 408.896313 112.699811l-70.99988 38.199936 220.699629 136.398771 7.899987-259.298565-74.699875 40.199933c-58.399902-66.199889-132.799777-116.099805-216.798636-145.299756-96.299838-33.299944-199.398665-37.099938-298.297499-10.899982-58.599902 15.499974-113.29981 40.899931-162.499727 75.399873z m-165.099723 798.19466l74.699875-40.099933c58.399902 66.199889 132.799777 116.099805 216.799636 145.199756 96.298838 33.299944 199.397665 37.099938 298.296499 10.899982 38.499935-10.199983 75.299874-24.599959 109.999815-43.099928 18.09997-9.599984 35.59994-20.399966 52.499912-32.199946 47.59992-33.299944 88.798851-74.199875 122.698794-121.599795 68.099886-95.19984 101.799829-211.697644 94.799841-327.89745-1.499997-25.099958-23.099961-44.199926-48.19992-42.699928s-44.199926 23.099961-42.699928 48.199919c11.79998 198.698666-119.599799 380.097362-312.397475 431.297276-147.999751 39.199934-303.69849-4.899992-408.897313-112.699811l70.99988-38.199936L61.197897 631.499799l-7.899987 259.298565z" fill="currentColor" p-id="2383"></path></svg>